<svg viewBox="0 0 106.68408203125 103.19677734375" version="1.1" xmlns="http://www.w3.org/2000/svg" style="height: 35.8985px; width: 35.7399px;" class=" glyph-box" id="square-and-pencil-icon"><g transform="matrix(1 0 0 1 -7.402929687500091 86.828369140625)"><path d="M109.326-75.293L112.842-78.9062C114.502-80.6641 114.502-83.0078 112.842-84.6191L111.719-85.791C110.205-87.3047 107.812-87.1094 106.201-85.5469L102.637-82.0312ZM50.5859-22.0215L60.1074-26.1719L105.713-71.7285L99.0234-78.3203L53.4668-32.7637L49.0723-23.584C48.6816-22.7539 49.6582-21.6309 50.5859-22.0215ZM32.8125 9.61914L90.1367 9.61914C98.9258 9.61914 104.004 4.54102 104.004-5.51758L104.004-57.7148L96.1426-49.8535L96.1426-5.9082C96.1426-0.830078 93.4082 1.75781 90.0391 1.75781L32.959 1.75781C28.0762 1.75781 25.3418-0.830078 25.3418-5.9082L25.3418-61.3281C25.3418-66.4062 28.0762-69.043 32.959-69.043L77.4414-69.043L85.3027-76.9043L32.8125-76.9043C22.6562-76.9043 17.4805-71.8262 17.4805-61.7676L17.4805-5.51758C17.4805 4.58984 22.6562 9.61914 32.8125 9.61914Z"></path></g></svg>
