<svg viewBox="0 0 112.842041015625 91.9423828125" version="1.1" xmlns="http://www.w3.org/2000/svg" style="height: 14.3538px; width: 17.6166px;" class="source-list-icon glyph-box"><g transform="matrix(1 0 0 1 -11.474042968749927 81.201171875)"><path d="M28.4668 9.76562L109.57 9.76562C118.896 9.76562 124.316 4.3457 124.316-6.10352L124.316-56.2988C124.316-66.748 118.848-72.168 108.301-72.168L62.8906-72.168C59.375-72.168 57.3242-72.998 54.6387-75.1953L51.8066-77.4414C48.3887-80.2734 45.8496-81.2012 40.7715-81.2012L26.9531-81.2012C17.8223-81.2012 12.4512-75.8789 12.4512-65.625L12.4512-6.10352C12.4512 4.3457 17.9199 9.76562 28.4668 9.76562ZM22.0215-64.7949C22.0215-69.2871 24.4629-71.6309 28.8574-71.6309L38.2324-71.6309C41.6992-71.6309 43.7012-70.8496 46.4355-68.6035L49.2676-66.3086C52.6367-63.5254 55.2734-62.5977 60.3516-62.5977L107.764-62.5977C112.256-62.5977 114.746-60.2539 114.746-55.4688L114.746-52.6367L22.0215-52.6367ZM29.0527 0.195312C24.5117 0.195312 22.0215-2.14844 22.0215-6.88477L22.0215-44.1895L114.746-44.1895L114.746-6.88477C114.746-2.14844 112.256 0.195312 107.764 0.195312Z"></path></g></svg>
