<svg viewBox="0 0 94.533935546875 117.4306640625" version="1.1" xmlns="http://www.w3.org/2000/svg" style="height: 35.3327px; width: 35.8084px;" class=" glyph-box" id="trash-icon"><g transform="matrix(1 0 0 1 -7.4680029296876 93.9453125)"><path d="M32.373 14.7949L77.1484 14.7949C84.1309 14.7949 88.8184 10.2539 89.1602 3.27148L92.5293-67.7246L98.3887-67.7246C100.391-67.7246 102.002-69.4336 102.002-71.4355C102.002-73.4375 100.391-75.0977 98.3887-75.0977L76.0742-75.0977L76.0742-82.5684C76.0742-89.6484 71.4844-93.9453 63.9648-93.9453L45.4102-93.9453C37.8906-93.9453 33.3008-89.6484 33.3008-82.5684L33.3008-75.0977L11.1328-75.0977C9.17969-75.0977 7.4707-73.4375 7.4707-71.4355C7.4707-69.3848 9.17969-67.7246 11.1328-67.7246L16.9922-67.7246L20.3613 3.32031C20.7031 10.3027 25.293 14.7949 32.373 14.7949ZM41.0645-82.0801C41.0645-84.8633 43.0176-86.6699 45.9473-86.6699L63.4277-86.6699C66.3574-86.6699 68.3105-84.8633 68.3105-82.0801L68.3105-75.0977L41.0645-75.0977ZM33.0566 7.42188C30.2734 7.42188 28.1738 5.32227 28.0273 2.44141L24.6094-67.7246L84.668-67.7246L81.4453 2.44141C81.3477 5.37109 79.248 7.42188 76.3672 7.42188ZM40.2832-0.927734C42.1387-0.927734 43.3594-2.09961 43.3105-3.80859L41.7969-56.0547C41.748-57.7637 40.5273-58.8867 38.7695-58.8867C36.9141-58.8867 35.6934-57.7148 35.7422-56.0059L37.207-3.80859C37.2559-2.05078 38.4766-0.927734 40.2832-0.927734ZM54.7363-0.927734C56.5918-0.927734 57.9102-2.09961 57.9102-3.80859L57.9102-56.0059C57.9102-57.7148 56.5918-58.8867 54.7363-58.8867C52.8809-58.8867 51.6113-57.7148 51.6113-56.0059L51.6113-3.80859C51.6113-2.09961 52.8809-0.927734 54.7363-0.927734ZM69.2383-0.927734C70.9961-0.927734 72.2168-2.05078 72.2656-3.80859L73.7305-56.0059C73.7793-57.7148 72.5586-58.8867 70.7031-58.8867C68.9453-58.8867 67.7246-57.7637 67.6758-56.0059L66.2109-3.80859C66.1621-2.09961 67.3828-0.927734 69.2383-0.927734Z"></path></g></svg>
