<svg viewBox="0 0 122.758056640625 117.0419921875" version="1.1" xmlns="http://www.w3.org/2000/svg" style="height: 19.1028px; width: 20.0357px;" class=" glyph-box"><g transform="matrix(1 0 0 1 -8.735942382812482 93.7509765625)"><path d="M84.7168-13.5742L84.7168-5.71289L107.52-5.71289C122.51-5.71289 131.494-14.7461 131.494-26.5625C131.494-36.4258 125.586-44.5312 116.064-48.3887C116.162-70.166 100.488-85.8887 80.5176-85.8887C67.2852-85.8887 57.8613-78.8086 52.002-70.2637C40.918-73.2422 26.9043-64.6484 26.6602-50.9277C15.625-49.2188 8.74023-40.1855 8.74023-28.6621C8.74023-15.9668 18.2617-5.71289 34.2773-5.71289L55.957-5.71289L55.957-13.5742L34.2285-13.5742C22.6562-13.5742 16.6016-20.2637 16.6016-28.6621C16.6016-37.9883 22.5098-44.9219 32.8613-44.9219C33.5449-44.9219 33.7891-45.3125 33.7891-45.9473C33.7891-60.9375 44.5801-65.0879 54.6387-62.1582C55.2246-61.9629 55.5664-62.0605 55.8594-62.5977C60.5957-71.0449 67.8711-78.0273 80.5176-78.0273C96.5332-78.0273 107.617-65.332 108.447-50.7812C108.594-48.584 108.447-45.9473 108.252-43.6523C108.203-43.0176 108.447-42.627 109.033-42.5293C117.92-40.5762 123.633-35.0098 123.633-26.5625C123.633-19.043 118.164-13.5742 107.471-13.5742ZM70.3613 23.291C71.3379 23.291 72.1191 22.9004 73.1445 21.9727L89.6484 6.54297C90.4297 5.85938 90.8203 5.0293 90.8203 3.95508C90.8203 2.00195 89.2578 0.537109 87.2559 0.537109C86.3281 0.537109 85.3516 0.976562 84.6191 1.70898L77.1973 9.13086L73.9258 12.5488L74.2188 5.27344L74.2188-36.6211C74.2188-38.6719 72.4609-40.4297 70.3613-40.4297C68.2617-40.4297 66.4551-38.6719 66.4551-36.6211L66.4551 5.27344L66.748 12.5977L63.4766 9.13086L56.0547 1.70898C55.3223 0.976562 54.2969 0.537109 53.3691 0.537109C51.3184 0.537109 49.8535 2.00195 49.8535 3.95508C49.8535 5.0293 50.2441 5.85938 51.0254 6.54297L67.5293 21.9727C68.5547 22.9004 69.3359 23.291 70.3613 23.291Z"></path></g></svg>
