<svg viewBox="0 0 107.818115234375 84.2294921875" version="1.1" xmlns="http://www.w3.org/2000/svg" style="height: 14.3451px; width: 18.3624px;" class=" glyph-box"><g transform="matrix(1 0 0 1 -12.445913085937491 77.3447265625)"><path d="M27.7832 6.88477L106.396 6.88477C115.186 6.88477 120.264 1.80664 120.264-8.25195L120.264-62.1582C120.264-72.168 115.137-77.2461 104.932-77.2461L26.3184-77.2461C17.5293-77.2461 12.4512-72.2168 12.4512-62.1582L12.4512-8.25195C12.4512 1.85547 17.5781 6.88477 27.7832 6.88477ZM60.5469-32.7148L23.6816-69.0918C24.7559-69.5312 26.0254-69.7754 27.4902-69.7754L105.225-69.7754C106.738-69.7754 108.057-69.5312 109.131-69.043L72.3633-32.7148C70.2637-30.6152 68.3594-29.6875 66.4551-29.6875C64.502-29.6875 62.5977-30.6641 60.5469-32.7148ZM19.9219-8.25195L19.9219-62.1582C19.9219-62.5488 19.9219-62.3535 19.9219-62.6953L47.998-35.1074L19.9707-7.42188C19.9219-7.66602 19.9219-7.95898 19.9219-8.25195ZM112.793-62.1094L112.793-8.20312C112.793-8.00781 112.793-7.76367 112.793-7.56836L84.9121-35.1074L112.793-62.5488C112.793-62.1094 112.793-62.1094 112.793-62.1094ZM27.4902-0.585938C26.123-0.585938 24.9512-0.78125 23.9258-1.2207L53.125-30.0781L56.2988-26.9531C59.7168-23.584 62.9883-22.168 66.4551-22.168C69.873-22.168 73.1934-23.584 76.6113-26.9531L79.7852-30.0781L108.936-1.26953C107.861-0.78125 106.641-0.585938 105.225-0.585938Z"></path></g></svg>
