<svg viewBox="0 0 102.97998046875 73.7802734375" version="1.1" xmlns="http://www.w3.org/2000/svg" style="height: 12.0419px; width: 16.8077px;" class="view-mode-button-icon glyph-box"><g transform="matrix(1 0 0 1 -10.155039062500009 72.1201171875)"><path d="M19.3359-58.3008C23.0957-58.3008 26.1719-61.377 26.1719-65.1855C26.1719-68.9453 23.0957-72.0215 19.3359-72.0215C15.5273-72.0215 12.4512-68.9453 12.4512-65.1855C12.4512-61.377 15.5273-58.3008 19.3359-58.3008ZM42.1387-60.5469L108.496-60.5469C111.084-60.5469 113.135-62.5977 113.135-65.1855C113.135-67.7734 111.084-69.8242 108.496-69.8242L42.1387-69.8242C39.5508-69.8242 37.5-67.7734 37.5-65.1855C37.5-62.5977 39.5508-60.5469 42.1387-60.5469ZM19.3359-28.3203C23.0957-28.3203 26.1719-31.3965 26.1719-35.2051C26.1719-38.9648 23.0957-42.041 19.3359-42.041C15.5273-42.041 12.4512-38.9648 12.4512-35.2051C12.4512-31.3965 15.5273-28.3203 19.3359-28.3203ZM42.1387-30.5664L108.496-30.5664C111.084-30.5664 113.135-32.6172 113.135-35.2051C113.135-37.793 111.084-39.8438 108.496-39.8438L42.1387-39.8438C39.5508-39.8438 37.5-37.793 37.5-35.2051C37.5-32.6172 39.5508-30.5664 42.1387-30.5664ZM19.3359 1.66016C23.0957 1.66016 26.1719-1.41602 26.1719-5.22461C26.1719-8.98438 23.0957-12.0605 19.3359-12.0605C15.5273-12.0605 12.4512-8.98438 12.4512-5.22461C12.4512-1.41602 15.5273 1.66016 19.3359 1.66016ZM42.1387-0.585938L108.496-0.585938C111.084-0.585938 113.135-2.63672 113.135-5.22461C113.135-7.8125 111.084-9.86328 108.496-9.86328L42.1387-9.86328C39.5508-9.86328 37.5-7.8125 37.5-5.22461C37.5-2.63672 39.5508-0.585938 42.1387-0.585938Z"></path></g></svg>
