<svg width="16" height="20" xmlns="http://www.w3.org/2000/svg" viewBox="0 0 16 20" aria-label="Portable Document Format (PDF)"><path d="M2.949 20H13.05c1.97 0 2.949-.98 2.949-2.92V8.61H9.113c-1.218 0-1.798-.569-1.798-1.763V0H2.95C.989 0 0 .989 0 2.93v14.15C0 19.03.98 20 2.949 20zm5.08-6.627c.315 0 .573.057.774.171.202.114.35.278.447.49.097.212.146.466.146.76 0 .298-.05.555-.148.771a1.074 1.074 0 01-.45.5c-.201.116-.458.174-.769.174H6.843v-2.866zm3.855 0v.554h-1.286v.693h1.17v.537h-1.17v1.082H9.87v-2.866h2.014zm-6.517 0c.233 0 .428.045.584.136.157.09.275.21.355.36.08.151.12.317.12.498 0 .182-.041.348-.122.496a.882.882 0 01-.358.355 1.199 1.199 0 01-.587.132h-.541v.889H4.09v-2.866zm2.546.547h-.342v1.771h.342c.13 0 .24-.018.333-.054a.537.537 0 00.228-.165.724.724 0 00.132-.275c.028-.11.042-.239.042-.386 0-.196-.025-.36-.076-.493a.583.583 0 00-.238-.299.792.792 0 00-.42-.1zM5.2 13.903h-.384v.928H5.2a.57.57 0 00.26-.055.39.39 0 00.17-.158.506.506 0 00.058-.251c0-.15-.043-.266-.13-.345a.512.512 0 00-.358-.12zM8.62.103c.399.065.789.335 1.236.783l5.241 5.233c.457.457.733.83.79 1.213H9.14c-.351 0-.523-.168-.523-.504z"></path></svg>
