<svg viewBox="0 0 136.5712890625 100.6357421875" version="1.1" xmlns="http://www.w3.org/2000/svg" style="height: 17.1392px; width: 23.2594px;" class=" glyph-box"><g transform="matrix(1 0 0 1 9.765678710937436 85.5478515625)"><path d="M58.5449 14.5508C85.7422 14.5508 108.35-8.05664 108.35-35.2539C108.35-62.5 85.6934-85.0586 58.4961-85.0586C33.0566-85.0586 11.8164-65.4785 9.08203-40.7227C11.4746-41.1621 14.9414-41.3574 17.5293-41.0645C20.2148-61.3281 37.4023-76.7578 58.4961-76.7578C81.4941-76.7578 100.049-58.3008 100.049-35.2539C100.049-24.5117 96.0449-14.7461 89.3555-7.4707C84.5703-13.1836 73.2422-18.6523 58.4961-18.6523C53.8086-18.6523 49.5117-18.0664 45.6543-17.1387C46.2402-14.7949 46.5332-12.2559 46.5332-9.76562C46.5332-2.14844 43.75 4.93164 39.0625 10.4492C45.0684 13.0859 51.6602 14.5508 58.5449 14.5508ZM58.4961-26.9531C67.8711-26.8555 75.2441-34.8633 75.2441-45.3613C75.2441-55.2246 67.8223-63.3789 58.4961-63.3789C49.1211-63.3789 41.6504-55.2246 41.748-45.3613C41.7969-34.8633 49.0723-27.0508 58.4961-26.9531ZM15.0391 15.0879C28.4668 15.0879 39.8438 3.85742 39.8438-9.7168C39.8438-23.3398 28.6621-34.5215 15.0391-34.5215C1.46484-34.5215-9.76562-23.291-9.76562-9.7168C-9.76562 3.95508 1.46484 15.0879 15.0391 15.0879ZM15.0391 5.81055C13.2324 5.81055 12.0605 4.63867 12.0605 2.83203L12.0605-6.73828L2.49023-6.73828C0.732422-6.73828-0.488281-7.91016-0.488281-9.7168C-0.488281-11.5234 0.732422-12.6953 2.49023-12.6953L12.0605-12.6953L12.0605-22.2656C12.0605-24.0234 13.2324-25.2441 15.0391-25.2441C16.8457-25.2441 18.0176-24.0234 18.0176-22.2656L18.0176-12.6953L27.5879-12.6953C29.3457-12.6953 30.5664-11.5234 30.5664-9.7168C30.5664-7.91016 29.3457-6.73828 27.5879-6.73828L18.0176-6.73828L18.0176 2.83203C18.0176 4.63867 16.8457 5.81055 15.0391 5.81055Z"></path></g></svg>
