<svg viewBox="0 0 102.1480712890625 100.9267578125" version="1.1" xmlns="http://www.w3.org/2000/svg" style="" class="source-list-icon glyph-box"><g transform="matrix(1 0 0 1 -7.470952148437391 85.693359375)"><path d="M59.1797 15.1855C86.7676 15.1855 109.619-7.61719 109.619-35.2539C109.619-62.8418 86.7676-85.6934 59.1309-85.6934C31.543-85.6934 8.74023-62.8418 8.74023-35.2539C8.74023-7.61719 31.5918 15.1855 59.1797 15.1855ZM59.1797 5.27344C36.7188 5.27344 18.7012-12.793 18.7012-35.2539C18.7012-57.7148 36.6699-75.7324 59.1309-75.7324C81.5918-75.7324 99.6582-57.7148 99.707-35.2539C99.707-12.793 81.6406 5.27344 59.1797 5.27344ZM34.4727-29.1992L59.1309-29.1992C61.3281-29.1992 63.0371-30.9082 63.0371-33.0566L63.0371-65.0879C63.0371-67.2363 61.3281-68.9453 59.1309-68.9453C56.9824-68.9453 55.2734-67.2363 55.2734-65.0879L55.2734-36.9141L34.4727-36.9141C32.2754-36.9141 30.6152-35.2539 30.6152-33.0566C30.6152-30.9082 32.2754-29.1992 34.4727-29.1992Z"></path></g></svg>
