<svg viewBox="0 0 99.6099853515625 99.6572265625" version="1.1" xmlns="http://www.w3.org/2000/svg" style="height: 11.315px; width: 11.3097px;" class="blue-icon glyph-box" aria-hidden="true" data-testid="Recents"><g transform="matrix(1 0 0 1 -8.740039062500045 85.05859375)"><path d="M58.5449 14.5508C85.791 14.5508 108.35-8.05664 108.35-35.2539C108.35-62.5 85.7422-85.0586 58.4961-85.0586C31.2988-85.0586 8.74023-62.5 8.74023-35.2539C8.74023-8.05664 31.3477 14.5508 58.5449 14.5508ZM58.5449 6.25C35.498 6.25 17.0898-12.207 17.0898-35.2539C17.0898-58.3008 35.4492-76.7578 58.4961-76.7578C81.543-76.7578 100-58.3008 100.049-35.2539C100.098-12.207 81.5918 6.25 58.5449 6.25ZM33.0078-29.9805L58.4961-29.9805C60.4004-29.9805 61.9141-31.4453 61.9141-33.3984L61.9141-66.3086C61.9141-68.2129 60.4004-69.6777 58.4961-69.6777C56.5918-69.6777 55.127-68.2129 55.127-66.3086L55.127-36.7676L33.0078-36.7676C31.0547-36.7676 29.5898-35.3027 29.5898-33.3984C29.5898-31.4453 31.0547-29.9805 33.0078-29.9805Z"></path></g></svg>
