<svg viewBox="0 0 268.0201416015625 158.116943359375" version="1.1" xmlns="http://www.w3.org/2000/svg" style="height: 22.4407px; width: 38.0386px;" class="symbol-icon layout-box" aria-hidden="true"><g transform="matrix(1 0 0 1 75.46503906249995 114.2884521484375)"><path d="M58.5449 14.5508C85.791 14.5508 108.35-8.05664 108.35-35.2539C108.35-62.5 85.7422-85.0586 58.4961-85.0586C31.2988-85.0586 8.74023-62.5 8.74023-35.2539C8.74023-8.05664 31.3477 14.5508 58.5449 14.5508ZM58.5449 6.25C35.498 6.25 17.0898-12.207 17.0898-35.2539C17.0898-58.3008 35.4492-76.7578 58.4961-76.7578C81.543-76.7578 100-58.3008 100.049-35.2539C100.098-12.207 81.5918 6.25 58.5449 6.25ZM41.8457-14.5996C42.9688-14.5996 43.9453-15.0391 44.6777-15.8203L58.4961-29.6875L72.4121-15.8203C73.1445-15.0879 74.0723-14.5996 75.1953-14.5996C77.3438-14.5996 79.1016-16.3574 79.1016-18.5547C79.1016-19.6777 78.7109-20.5566 77.9297-21.3379L64.0625-35.2051L77.9785-49.1699C78.8086-50 79.1504-50.8301 79.1504-51.9043C79.1504-54.0527 77.3926-55.8105 75.2441-55.8105C74.2188-55.8105 73.3887-55.4199 72.5586-54.5898L58.4961-40.6738L44.5801-54.541C43.8477-55.3223 42.9688-55.7129 41.8457-55.7129C39.6973-55.7129 37.9395-54.0039 37.9395-51.8555C37.9395-50.7812 38.3789-49.8535 39.1113-49.1211L52.9785-35.2051L39.1113-21.2891C38.3789-20.5566 37.9395-19.6289 37.9395-18.5547C37.9395-16.3574 39.6973-14.5996 41.8457-14.5996Z"></path></g></svg>
