<svg viewBox="0 0 268.0201416015625 158.116943359375" version="1.1" xmlns="http://www.w3.org/2000/svg" style="height: 22.4407px; width: 38.0386px;" class="symbol-icon layout-box" aria-hidden="true"><g transform="matrix(1 0 0 1 70.28510009765614 114.2884521484375)"><path d="M63.7207 12.5488C64.9902 12.5488 66.2109 12.4023 67.5293 12.3047L70.3125 17.6758C70.8496 18.75 71.9238 19.3359 73.291 19.1406C74.5117 18.8965 75.3418 18.0176 75.5371 16.6992L76.3672 10.791C78.8086 10.1562 81.2012 9.22852 83.4961 8.20312L87.8906 12.1582C88.8184 13.0371 89.9902 13.2324 91.2109 12.5488C92.2852 11.9629 92.7246 10.791 92.4805 9.52148L91.2598 3.66211C93.3105 2.24609 95.3125 0.634766 97.1191-1.17188L102.539 1.12305C103.76 1.61133 104.932 1.36719 105.859 0.244141C106.689-0.634766 106.787-1.9043 106.055-2.97852L102.881-8.05664C104.346-10.1074 105.518-12.3047 106.641-14.6484L112.646-14.3555C113.916-14.3066 114.941-14.9902 115.381-16.2109C115.771-17.4316 115.43-18.6035 114.404-19.3848L109.717-23.0957C110.352-25.4395 110.84-27.9785 111.084-30.6152L116.699-32.373C117.969-32.8125 118.701-33.7402 118.701-35.0586C118.701-36.3281 117.969-37.2559 116.699-37.6953L111.084-39.502C110.84-42.1387 110.352-44.5801 109.717-46.9727L114.404-50.7324C115.381-51.4648 115.771-52.5879 115.381-53.8086C114.941-55.0293 113.916-55.7129 112.646-55.6641L106.641-55.4199C105.518-57.7637 104.346-59.9609 102.881-62.0117L106.055-67.0898C106.738-68.1152 106.641-69.3848 105.859-70.2637C104.932-71.3867 103.76-71.6797 102.539-71.1426L97.1191-68.9453C95.3125-70.6543 93.3105-72.3145 91.2598-73.7305L92.4805-79.541C92.7246-80.8594 92.2852-82.0312 91.2109-82.6172C89.9902-83.252 88.8184-83.1543 87.8906-82.1777L83.4961-78.3203C81.2012-79.3457 78.8086-80.1758 76.3672-80.8594L75.5371-86.7676C75.3418-88.0371 74.4629-88.9648 73.2422-89.1602C71.9238-89.3555 70.8496-88.8184 70.3125-87.7441L67.5293-82.373C66.2109-82.4707 64.9902-82.5684 63.7207-82.5684C62.4023-82.5684 61.2305-82.4707 59.9121-82.373L57.0801-87.7441C56.543-88.8184 55.4688-89.3555 54.1504-89.1602C52.9297-88.9648 52.0508-88.0371 51.9043-86.7676L51.0254-80.9082C48.584-80.1758 46.2402-79.3457 43.8965-78.3203L39.502-82.1777C38.5742-83.1543 37.4023-83.252 36.1816-82.6172C35.1074-82.0312 34.668-80.8594 34.9121-79.541L36.1328-73.7305C34.1309-72.3145 32.0801-70.6543 30.2734-68.9453L24.8535-71.1426C23.6328-71.6797 22.5098-71.3867 21.582-70.2637C20.752-69.3848 20.6543-68.1152 21.3379-67.1387L24.5117-62.0117C23.0957-59.9609 21.875-57.7637 20.752-55.4199L14.7949-55.6641C13.5254-55.7129 12.4512-55.0293 12.0117-53.8086C11.6211-52.5879 11.9629-51.4648 12.9883-50.7324L17.6758-46.9727C17.041-44.5801 16.5527-42.1387 16.4062-39.502L10.6934-37.6953C9.42383-37.3047 8.74023-36.377 8.74023-35.0586C8.74023-33.7402 9.42383-32.8125 10.6934-32.373L16.4062-30.5664C16.5527-27.9785 17.041-25.4395 17.6758-23.0957L12.9883-19.3848C12.0117-18.6035 11.6699-17.4316 12.0117-16.2109C12.4512-14.9902 13.5254-14.3066 14.7949-14.3555L20.752-14.6484C21.875-12.3047 23.0957-10.1074 24.5117-8.05664L21.3379-2.97852C20.6543-1.9043 20.752-0.634766 21.582 0.244141C22.5098 1.36719 23.6328 1.61133 24.8535 1.12305L30.2734-1.17188C32.0801 0.634766 34.1309 2.24609 36.1328 3.66211L34.9121 9.52148C34.668 10.791 35.1074 11.9629 36.1816 12.5488C37.4023 13.2324 38.5742 13.0371 39.502 12.1582L43.8965 8.20312C46.2402 9.22852 48.584 10.1562 51.0254 10.791L51.9043 16.6992C52.0508 18.0176 52.9297 18.8965 54.1504 19.1406C55.4688 19.3359 56.543 18.75 57.0801 17.6758L59.9121 12.3047C61.1816 12.4023 62.4023 12.5488 63.7207 12.5488ZM75.9766-38.1348C73.7305-44.2871 69.1895-47.6562 63.623-47.6562C62.7441-47.6562 61.8164-47.5586 60.2051-47.2168L46.1914-71.1426C51.4648-73.7305 57.373-75.1465 63.7207-75.1465C85.0098-75.1465 101.709-58.9844 103.271-38.1348ZM24.0723-35.0098C24.0723-48.584 30.5176-60.5469 40.5762-67.7734L54.7363-43.7012C52.0508-40.9668 50.8301-37.9883 50.8301-34.8145C50.8301-31.7383 52.002-28.9062 54.6875-26.0742L40.2832-2.44141C30.3711-9.7168 24.0723-21.5332 24.0723-35.0098ZM57.7637-34.8633C57.7637-38.1836 60.5469-40.7715 63.7207-40.7715C66.9922-40.7715 69.7266-38.1836 69.7266-34.8633C69.7266-31.5918 66.9922-28.9062 63.7207-28.9062C60.5469-28.9062 57.7637-31.5918 57.7637-34.8633ZM63.7207 5.12695C57.2266 5.12695 51.1719 3.61328 45.8496 0.976562L60.2051-22.5098C61.7188-22.1191 62.7441-22.0215 63.623-22.0215C69.2383-22.0215 73.7793-25.4883 75.9766-31.7871L103.223-31.7871C101.66-11.0352 85.0098 5.12695 63.7207 5.12695Z"></path></g></svg>
