<svg viewBox="0 0 92.43603515625 91.2607421875" version="1.1" xmlns="http://www.w3.org/2000/svg" style="height: 12.9521px; width: 13.1189px;" class="view-mode-button-icon view-mode-menu-icon glyph-box"><g transform="matrix(1 0 0 1 -11.177021484375018 80.8603515625)"><path d="M22.9492-39.0137L43.7012-39.0137C50.7324-39.0137 54.1992-42.4316 54.1992-49.6582L54.1992-70.1172C54.1992-77.3438 50.7324-80.7617 43.7012-80.7617L22.9492-80.7617C15.918-80.7617 12.4512-77.3438 12.4512-70.1172L12.4512-49.6582C12.4512-42.4316 15.918-39.0137 22.9492-39.0137ZM72.3633-39.0137L93.1152-39.0137C100.146-39.0137 103.613-42.4316 103.613-49.6582L103.613-70.1172C103.613-77.3438 100.146-80.7617 93.1152-80.7617L72.3633-80.7617C65.2832-80.7617 61.8652-77.3438 61.8652-70.1172L61.8652-49.6582C61.8652-42.4316 65.2832-39.0137 72.3633-39.0137ZM22.998-47.0215C21.2891-47.0215 20.459-47.9004 20.459-49.6582L20.459-70.1172C20.459-71.875 21.2891-72.7539 22.998-72.7539L43.6035-72.7539C45.3125-72.7539 46.1914-71.875 46.1914-70.1172L46.1914-49.6582C46.1914-47.9004 45.3125-47.0215 43.6035-47.0215ZM72.4121-47.0215C70.7031-47.0215 69.873-47.9004 69.873-49.6582L69.873-70.1172C69.873-71.875 70.7031-72.7539 72.4121-72.7539L93.0664-72.7539C94.7754-72.7539 95.5566-71.875 95.5566-70.1172L95.5566-49.6582C95.5566-47.9004 94.7754-47.0215 93.0664-47.0215ZM22.9492 10.4004L43.7012 10.4004C50.7324 10.4004 54.1992 6.98242 54.1992-0.292969L54.1992-20.7031C54.1992-27.9297 50.7324-31.3477 43.7012-31.3477L22.9492-31.3477C15.918-31.3477 12.4512-27.9297 12.4512-20.7031L12.4512-0.292969C12.4512 6.98242 15.918 10.4004 22.9492 10.4004ZM72.3633 10.4004L93.1152 10.4004C100.146 10.4004 103.613 6.98242 103.613-0.292969L103.613-20.7031C103.613-27.9297 100.146-31.3477 93.1152-31.3477L72.3633-31.3477C65.2832-31.3477 61.8652-27.9297 61.8652-20.7031L61.8652-0.292969C61.8652 6.98242 65.2832 10.4004 72.3633 10.4004ZM22.998 2.34375C21.2891 2.34375 20.459 1.51367 20.459-0.244141L20.459-20.7031C20.459-22.4609 21.2891-23.3398 22.998-23.3398L43.6035-23.3398C45.3125-23.3398 46.1914-22.4609 46.1914-20.7031L46.1914-0.244141C46.1914 1.51367 45.3125 2.34375 43.6035 2.34375ZM72.4121 2.34375C70.7031 2.34375 69.873 1.51367 69.873-0.244141L69.873-20.7031C69.873-22.4609 70.7031-23.3398 72.4121-23.3398L93.0664-23.3398C94.7754-23.3398 95.5566-22.4609 95.5566-20.7031L95.5566-0.244141C95.5566 1.51367 94.7754 2.34375 93.0664 2.34375Z"></path></g></svg>
