<svg width="24" height="18" xmlns="http://www.w3.org/2000/svg" aria-label="JPEG image" data-testid="image-icon"><path d="M3.563 18h16.874c2.049 0 3.063-1.007 3.063-3.021V3.03C23.5 1.017 22.486 0 20.437 0H3.563C1.524 0 .5 1.017.5 3.031v11.948C.5 16.993 1.524 18 3.563 18zm4.253-8.75a2.417 2.417 0 01-2.41-2.416 2.424 2.424 0 012.41-2.415c1.316 0 2.399 1.095 2.399 2.415a2.415 2.415 0 01-2.4 2.415zm-4.234 7.186c-.946 0-1.512-.567-1.512-1.526v-.596l2.995-2.62c.43-.382.897-.577 1.326-.577.478 0 .976.195 1.405.596l1.863 1.682 4.662-4.146c.478-.43 1.015-.625 1.57-.625a2.27 2.27 0 011.552.635l4.487 4.165v1.506c0 .939-.576 1.506-1.503 1.506H3.582z" fill="#FC0"></path></svg>
