<svg viewBox="0 0 99.6099853515625 99.6572265625" version="1.1" xmlns="http://www.w3.org/2000/svg" class="meatball-icon glyph-box"><g transform="matrix(1 0 0 1 -8.740039062500045 85.05859375)"><path d="M58.5449 14.5508C85.791 14.5508 108.35-8.05664 108.35-35.2539C108.35-62.5 85.7422-85.0586 58.4961-85.0586C31.2988-85.0586 8.74023-62.5 8.74023-35.2539C8.74023-8.05664 31.3477 14.5508 58.5449 14.5508ZM35.0586-27.9297C31.0059-27.9297 27.6855-31.2012 27.6855-35.3027C27.6855-39.3555 31.0059-42.627 35.0586-42.627C39.0625-42.627 42.3828-39.3555 42.3828-35.3027C42.3828-31.2012 39.1113-27.9297 35.0586-27.9297ZM58.5449-27.9297C54.4922-27.9297 51.1719-31.2012 51.1719-35.3027C51.1719-39.3555 54.4922-42.627 58.5449-42.627C62.5977-42.627 65.8691-39.3555 65.8691-35.3027C65.8691-31.2012 62.5977-27.9297 58.5449-27.9297ZM82.0801-27.9297C77.9785-27.9297 74.707-31.2012 74.707-35.3027C74.707-39.3555 77.9785-42.627 82.0801-42.627C86.084-42.627 89.4043-39.3555 89.4043-35.3027C89.4043-31.2012 86.084-27.9297 82.0801-27.9297Z"></path></g></svg>