<svg viewBox="0 0 115.1376953125 89.9912109375" version="1.1" xmlns="http://www.w3.org/2000/svg" style="overflow: visible; height: 14.6878px; width: 18.792px;" class=" glyph-box"><g transform="matrix(1 0 0 1 -12.451118164062564 80.2255859375)"><path d="M27.7832 9.76562L112.256 9.76562C122.51 9.76562 127.588 4.6875 127.588-5.37109L127.588-64.9902C127.588-75.0488 122.51-80.127 112.256-80.127L27.7832-80.127C17.5781-80.127 12.4512-75.0977 12.4512-64.9902L12.4512-5.37109C12.4512 4.73633 17.5781 9.76562 27.7832 9.76562ZM27.8809 1.9043C22.998 1.9043 20.3125-0.683594 20.3125-5.76172L20.3125-64.5996C20.3125-69.6777 22.998-72.2656 27.8809-72.2656L49.6582-72.2656L49.6582 1.9043ZM112.158-72.2656C116.992-72.2656 119.727-69.6777 119.727-64.5996L119.727-5.76172C119.727-0.683594 116.992 1.9043 112.158 1.9043L57.3242 1.9043L57.3242-72.2656ZM40.2832-54.1504C41.748-54.1504 43.0664-55.4688 43.0664-56.8848C43.0664-58.3496 41.748-59.6191 40.2832-59.6191L29.7852-59.6191C28.3203-59.6191 27.0508-58.3496 27.0508-56.8848C27.0508-55.4688 28.3203-54.1504 29.7852-54.1504ZM40.2832-41.5039C41.748-41.5039 43.0664-42.8223 43.0664-44.2871C43.0664-45.752 41.748-46.9727 40.2832-46.9727L29.7852-46.9727C28.3203-46.9727 27.0508-45.752 27.0508-44.2871C27.0508-42.8223 28.3203-41.5039 29.7852-41.5039ZM40.2832-28.9062C41.748-28.9062 43.0664-30.127 43.0664-31.5918C43.0664-33.0566 41.748-34.3262 40.2832-34.3262L29.7852-34.3262C28.3203-34.3262 27.0508-33.0566 27.0508-31.5918C27.0508-30.127 28.3203-28.9062 29.7852-28.9062Z"></path></g></svg>
