<svg viewBox="0 0 122.758056640625 109.0341796875" version="1.1" xmlns="http://www.w3.org/2000/svg" style="height: 17.7958px; width: 20.0357px;" class=" glyph-box"><g transform="matrix(1 0 0 1 -8.735942382812482 89.7470703125)"><path d="M84.7168-13.5742L84.7168-5.71289L107.52-5.71289C122.51-5.71289 131.494-14.7461 131.494-26.5625C131.494-36.4258 125.586-44.5312 116.064-48.3887C116.162-70.166 100.488-85.8887 80.5176-85.8887C67.2852-85.8887 57.8613-78.8086 52.002-70.2637C40.918-73.2422 26.9043-64.6484 26.6602-50.9277C15.625-49.2188 8.74023-40.1855 8.74023-28.6621C8.74023-15.9668 18.2617-5.71289 34.2773-5.71289L55.957-5.71289L55.957-13.5742L34.2285-13.5742C22.6562-13.5742 16.6016-20.2637 16.6016-28.6621C16.6016-37.9883 22.5098-44.9219 32.8613-44.9219C33.5449-44.9219 33.7891-45.3125 33.7891-45.9473C33.7891-60.9375 44.5801-65.0879 54.6387-62.1582C55.2246-61.9629 55.5664-62.0605 55.8594-62.5977C60.5957-71.0449 67.8711-78.0273 80.5176-78.0273C96.5332-78.0273 107.617-65.332 108.447-50.7812C108.594-48.584 108.447-45.9473 108.252-43.6523C108.203-43.0176 108.447-42.627 109.033-42.5293C117.92-40.5762 123.633-35.0098 123.633-26.5625C123.633-19.043 118.164-13.5742 107.471-13.5742ZM70.3613 19.2871C72.4609 19.2871 74.2188 17.5781 74.2188 15.5273L74.2188-30.2734L73.9258-39.3066L77.1973-35.8398L84.6191-28.4668C85.3516-27.7344 86.3281-27.2949 87.2559-27.2949C89.2578-27.2949 90.8203-28.7109 90.8203-30.7129C90.8203-31.7383 90.4297-32.6172 89.6484-33.3008L73.1445-48.7305C72.1191-49.6582 71.3379-50 70.3613-50C69.3359-50 68.5547-49.6582 67.5293-48.7305L51.0254-33.3008C50.2441-32.6172 49.8535-31.7383 49.8535-30.7129C49.8535-28.7109 51.3184-27.2949 53.3691-27.2949C54.2969-27.2949 55.3223-27.7344 56.0547-28.4668L63.4766-35.8398L66.748-39.3066L66.4551-30.2734L66.4551 15.5273C66.4551 17.5781 68.2617 19.2871 70.3613 19.2871Z"></path></g></svg>
