<svg viewBox="0 0 122.758056640625 108.9365234375" version="1.1" xmlns="http://www.w3.org/2000/svg" class="upload-icon glyph-box" width="50" height="50"><g transform="matrix(1 0 0 1 -8.735942382812482 89.6982421875)"><path d="M8.74023-28.1738C8.74023-15.7227 19.2383-5.71289 35.2539-5.71289L66.5527-5.71289L66.5527 15.4785C66.5527 17.5293 68.3594 19.2383 70.459 19.2383C72.5586 19.2383 74.3164 17.5293 74.3164 15.4785L74.3164-5.71289L108.008-5.71289C122.07-5.71289 131.494-14.502 131.494-26.0742C131.494-35.6445 125.586-44.4336 116.064-48.3887C116.162-70.166 100.488-85.8887 80.5176-85.8887C67.2852-85.8887 57.8613-78.8086 52.002-70.2637C40.918-73.2422 26.9043-64.6484 26.6602-50.9277C15.625-49.1699 8.74023-39.4531 8.74023-28.1738ZM66.5527-7.71484L66.5527-32.8613L66.8457-40.1367L64.3555-37.5L56.1523-28.8086C55.4688-28.0273 54.3945-27.6367 53.4668-27.6367C51.416-27.6367 49.9512-29.1016 49.9512-31.0547C49.9512-32.1289 50.3906-32.9102 51.123-33.6426L67.627-49.5605C68.6035-50.5371 69.4336-50.8789 70.459-50.8789C71.4355-50.8789 72.2656-50.5371 73.2422-49.5605L89.7461-33.6426C90.4785-32.9102 90.918-32.1289 90.918-31.0547C90.918-29.1016 89.3555-27.6367 87.3535-27.6367C86.4258-27.6367 85.4004-28.0273 84.7168-28.8086L76.5137-37.5L74.0234-40.1367L74.3164-32.8613L74.3164-7.71484C74.3164-5.56641 72.5586-3.85742 70.459-3.85742C68.3105-3.85742 66.5527-5.56641 66.5527-7.71484Z"></path></g></svg>
