<svg class="icon" viewBox="0 0 18 28"><path d="M9.004 26.979c.537-.007.958-.202 1.4-.637l6.126-6.273c.32-.32.47-.689.47-1.141 0-.923-.753-1.679-1.657-1.679a1.67 1.67 0 00-1.228.546l-5.388 5.597h.578l-5.414-5.597c-.35-.35-.773-.546-1.234-.546-.91 0-1.657.756-1.657 1.679 0 .445.157.814.463 1.142l6.139 6.272c.446.448.87.637 1.402.637zM1.463 7.937A1.587 1.587 0 001 9.081c0 .916.747 1.677 1.657 1.677.46 0 .886-.193 1.234-.546l5.414-5.596h-.578l5.388 5.596c.344.359.775.546 1.228.546.904 0 1.657-.761 1.657-1.677 0-.455-.15-.832-.47-1.144l-6.125-6.27c-.443-.442-.864-.633-1.4-.646-.534 0-.958.198-1.403.645L1.463 7.937z"></path></svg>
